<mxfile host="app.diagrams.net" agent="Mozilla/5.0 (Macintosh; Intel Mac OS X 10_15_7) AppleWebKit/537.36 (KHTML, like Gecko) Chrome/131.0.0.0 Safari/537.36" version="25.0.1">
  <diagram name="Page-1" id="0783ab3e-0a74-02c8-0abd-f7b4e66b4bec">
    <mxGraphModel dx="1578" dy="2152" grid="1" gridSize="10" guides="1" tooltips="1" connect="1" arrows="1" fold="1" page="1" pageScale="1" pageWidth="850" pageHeight="1100" background="none" math="0" shadow="0">
      <root>
        <mxCell id="0" />
        <mxCell id="1" parent="0" />
        <mxCell id="1c1d494c118603dd-1" value="GPU Marketplace" style="swimlane;html=1;childLayout=stackLayout;startSize=20;rounded=0;shadow=0;comic=0;labelBackgroundColor=none;strokeWidth=1;fontFamily=Verdana;fontSize=12;align=center;" parent="1" vertex="1">
          <mxGeometry x="41" y="-60" width="810" height="910" as="geometry" />
        </mxCell>
        <mxCell id="1c1d494c118603dd-2" value="&lt;div style=&quot;font-size:14px;font-weight:normal;color:rgba(31,35,41,1.000000);&quot;&gt;&lt;p&gt;Lessor&lt;/p&gt;&lt;/div&gt;&lt;span style=&quot;white-space:pre-wrap;&quot;&gt;&lt;/span&gt;" style="swimlane;html=1;startSize=20;dashed=1;" parent="1c1d494c118603dd-1" vertex="1">
          <mxGeometry y="20" width="300" height="890" as="geometry" />
        </mxCell>
        <mxCell id="LN9f-XrlCzF4qDYMU047-42" style="edgeStyle=orthogonalEdgeStyle;rounded=0;orthogonalLoop=1;jettySize=auto;html=1;" edge="1" parent="1c1d494c118603dd-2" source="LN9f-XrlCzF4qDYMU047-1" target="LN9f-XrlCzF4qDYMU047-4">
          <mxGeometry relative="1" as="geometry" />
        </mxCell>
        <mxCell id="LN9f-XrlCzF4qDYMU047-1" value="" style="ellipse;whiteSpace=wrap;html=1;rounded=0;shadow=0;comic=0;labelBackgroundColor=none;strokeWidth=1;fillColor=#000000;fontFamily=Verdana;fontSize=12;align=center;" vertex="1" parent="1c1d494c118603dd-2">
          <mxGeometry x="110" y="40" width="40" height="40" as="geometry" />
        </mxCell>
        <mxCell id="LN9f-XrlCzF4qDYMU047-118" style="edgeStyle=orthogonalEdgeStyle;rounded=0;orthogonalLoop=1;jettySize=auto;html=1;entryX=0.5;entryY=0;entryDx=0;entryDy=0;" edge="1" parent="1c1d494c118603dd-2" source="LN9f-XrlCzF4qDYMU047-4" target="LN9f-XrlCzF4qDYMU047-117">
          <mxGeometry relative="1" as="geometry" />
        </mxCell>
        <mxCell id="LN9f-XrlCzF4qDYMU047-4" value="Deploy nodes" style="html=1;align=center;verticalAlign=middle;rounded=1;absoluteArcSize=1;arcSize=10;dashed=0;whiteSpace=wrap;" vertex="1" parent="1c1d494c118603dd-2">
          <mxGeometry x="60" y="140" width="140" height="40" as="geometry" />
        </mxCell>
        <mxCell id="LN9f-XrlCzF4qDYMU047-28" value="Nodes Listing" style="html=1;align=center;verticalAlign=middle;rounded=1;absoluteArcSize=1;arcSize=10;dashed=0;whiteSpace=wrap;" vertex="1" parent="1c1d494c118603dd-2">
          <mxGeometry x="60" y="311.5" width="140" height="40" as="geometry" />
        </mxCell>
        <mxCell id="LN9f-XrlCzF4qDYMU047-37" value="Generate&lt;br&gt;&amp;nbsp;access token" style="text;html=1;align=center;verticalAlign=middle;resizable=0;points=[];autosize=1;strokeColor=#666666;fillColor=#f5f5f5;fontColor=#333333;" vertex="1" parent="1c1d494c118603dd-2">
          <mxGeometry x="240" y="140" width="100" height="40" as="geometry" />
        </mxCell>
        <mxCell id="LN9f-XrlCzF4qDYMU047-76" value="&lt;span style=&quot;color: rgb(51, 51, 51); font-weight: 400;&quot;&gt;Credit Staking&lt;/span&gt;" style="shape=folder;fontStyle=1;tabWidth=48;tabHeight=20;tabPosition=left;html=1;boundedLbl=1;whiteSpace=wrap;dashed=1;strokeColor=#808080;" vertex="1" parent="1c1d494c118603dd-2">
          <mxGeometry x="19.5" y="428" width="107.5" height="60" as="geometry" />
        </mxCell>
        <mxCell id="LN9f-XrlCzF4qDYMU047-77" value="&lt;span style=&quot;color: rgb(51, 51, 51); font-weight: 400;&quot;&gt;Yield Staking&lt;/span&gt;" style="shape=folder;fontStyle=1;tabWidth=58;tabHeight=20;tabPosition=left;html=1;boundedLbl=1;whiteSpace=wrap;strokeColor=#808080;dashed=1;" vertex="1" parent="1c1d494c118603dd-2">
          <mxGeometry x="169.5" y="428" width="107.5" height="60" as="geometry" />
        </mxCell>
        <mxCell id="LN9f-XrlCzF4qDYMU047-78" value="&lt;span style=&quot;color: rgb(31, 35, 41);&quot;&gt;&lt;font style=&quot;font-size: 11px;&quot;&gt;Lessor&lt;/font&gt;&lt;/span&gt;" style="text;html=1;align=center;verticalAlign=middle;resizable=0;points=[];autosize=1;strokeColor=none;fillColor=none;" vertex="1" parent="1c1d494c118603dd-2">
          <mxGeometry x="15" y="422" width="60" height="30" as="geometry" />
        </mxCell>
        <mxCell id="LN9f-XrlCzF4qDYMU047-79" value="Participant" style="text;whiteSpace=wrap;fontSize=10;" vertex="1" parent="1c1d494c118603dd-2">
          <mxGeometry x="169.5" y="427" width="60" height="20" as="geometry" />
        </mxCell>
        <mxCell id="LN9f-XrlCzF4qDYMU047-81" style="edgeStyle=orthogonalEdgeStyle;rounded=0;orthogonalLoop=1;jettySize=auto;html=1;entryX=0;entryY=0;entryDx=0;entryDy=30;entryPerimeter=0;dashed=1;" edge="1" parent="1c1d494c118603dd-2" source="LN9f-XrlCzF4qDYMU047-76" target="LN9f-XrlCzF4qDYMU047-77">
          <mxGeometry relative="1" as="geometry" />
        </mxCell>
        <mxCell id="LN9f-XrlCzF4qDYMU047-120" style="edgeStyle=orthogonalEdgeStyle;rounded=0;orthogonalLoop=1;jettySize=auto;html=1;entryX=0.5;entryY=0;entryDx=0;entryDy=0;exitX=0.42;exitY=1.021;exitDx=0;exitDy=0;exitPerimeter=0;" edge="1" parent="1c1d494c118603dd-2" source="LN9f-XrlCzF4qDYMU047-83" target="LN9f-XrlCzF4qDYMU047-109">
          <mxGeometry relative="1" as="geometry" />
        </mxCell>
        <mxCell id="LN9f-XrlCzF4qDYMU047-83" value="Staking" style="shape=umlFrame;whiteSpace=wrap;html=1;pointerEvents=0;recursiveResize=0;container=1;collapsible=0;width=120;height=30;dashed=1;" vertex="1" parent="1c1d494c118603dd-2">
          <mxGeometry x="15" y="390" width="270" height="120" as="geometry" />
        </mxCell>
        <mxCell id="LN9f-XrlCzF4qDYMU047-84" style="edgeStyle=orthogonalEdgeStyle;rounded=0;orthogonalLoop=1;jettySize=auto;html=1;entryX=0.425;entryY=-0.028;entryDx=0;entryDy=0;entryPerimeter=0;endArrow=none;endFill=0;" edge="1" parent="1c1d494c118603dd-2" source="LN9f-XrlCzF4qDYMU047-28" target="LN9f-XrlCzF4qDYMU047-83">
          <mxGeometry relative="1" as="geometry" />
        </mxCell>
        <mxCell id="LN9f-XrlCzF4qDYMU047-125" style="edgeStyle=orthogonalEdgeStyle;rounded=0;orthogonalLoop=1;jettySize=auto;html=1;" edge="1" parent="1c1d494c118603dd-2" source="LN9f-XrlCzF4qDYMU047-109">
          <mxGeometry relative="1" as="geometry">
            <mxPoint x="130" y="640" as="targetPoint" />
          </mxGeometry>
        </mxCell>
        <mxCell id="LN9f-XrlCzF4qDYMU047-109" value="&lt;font&gt;Recurring Payment&lt;/font&gt;" style="html=1;align=center;verticalAlign=middle;rounded=1;absoluteArcSize=1;arcSize=10;dashed=0;whiteSpace=wrap;" vertex="1" parent="1c1d494c118603dd-2">
          <mxGeometry x="60" y="545" width="140" height="40" as="geometry" />
        </mxCell>
        <mxCell id="LN9f-XrlCzF4qDYMU047-119" style="edgeStyle=orthogonalEdgeStyle;rounded=0;orthogonalLoop=1;jettySize=auto;html=1;entryX=0.5;entryY=0;entryDx=0;entryDy=0;" edge="1" parent="1c1d494c118603dd-2" source="LN9f-XrlCzF4qDYMU047-117" target="LN9f-XrlCzF4qDYMU047-28">
          <mxGeometry relative="1" as="geometry" />
        </mxCell>
        <mxCell id="LN9f-XrlCzF4qDYMU047-117" value="Status Management&lt;br&gt;&lt;font color=&quot;#919191&quot; style=&quot;font-size: 10px;&quot;&gt;running/listed/offline/active&lt;/font&gt;" style="shape=umlState;rounded=1;verticalAlign=top;spacingTop=5;umlStateSymbol=collapseState;absoluteArcSize=1;arcSize=10;html=1;whiteSpace=wrap;" vertex="1" parent="1c1d494c118603dd-2">
          <mxGeometry x="60" y="210" width="140" height="60" as="geometry" />
        </mxCell>
        <mxCell id="LN9f-XrlCzF4qDYMU047-126" value="&lt;span style=&quot;text-wrap-mode: nowrap;&quot;&gt;Access Granting&lt;/span&gt;" style="html=1;align=center;verticalAlign=middle;rounded=1;absoluteArcSize=1;arcSize=10;dashed=0;whiteSpace=wrap;" vertex="1" parent="1c1d494c118603dd-2">
          <mxGeometry x="60" y="640" width="140" height="40" as="geometry" />
        </mxCell>
        <mxCell id="1c1d494c118603dd-3" value="Janction" style="swimlane;html=1;startSize=20;" parent="1c1d494c118603dd-1" vertex="1">
          <mxGeometry x="300" y="20" width="250" height="890" as="geometry" />
        </mxCell>
        <mxCell id="LN9f-XrlCzF4qDYMU047-5" value="" style="fontStyle=1;align=center;verticalAlign=top;childLayout=stackLayout;horizontal=1;horizontalStack=0;resizeParent=1;resizeParentMax=0;resizeLast=0;marginBottom=0;" vertex="1" parent="1c1d494c118603dd-3">
          <mxGeometry x="55" y="88" width="140" height="144" as="geometry" />
        </mxCell>
        <mxCell id="LN9f-XrlCzF4qDYMU047-6" value="Nodes images&lt;div&gt;(Docker)&lt;/div&gt;" style="html=1;align=left;spacingLeft=4;verticalAlign=top;strokeColor=none;fillColor=none;whiteSpace=wrap;" vertex="1" parent="LN9f-XrlCzF4qDYMU047-5">
          <mxGeometry width="140" height="40" as="geometry" />
        </mxCell>
        <mxCell id="LN9f-XrlCzF4qDYMU047-7" value="" style="shape=module;jettyWidth=10;jettyHeight=4;" vertex="1" parent="LN9f-XrlCzF4qDYMU047-6">
          <mxGeometry x="1" width="16" height="20" relative="1" as="geometry">
            <mxPoint x="-25" y="9" as="offset" />
          </mxGeometry>
        </mxCell>
        <mxCell id="LN9f-XrlCzF4qDYMU047-8" value="" style="line;strokeWidth=1;fillColor=none;align=left;verticalAlign=middle;spacingTop=-1;spacingLeft=3;spacingRight=3;rotatable=0;labelPosition=right;points=[];portConstraint=eastwest;" vertex="1" parent="LN9f-XrlCzF4qDYMU047-5">
          <mxGeometry y="40" width="140" height="8" as="geometry" />
        </mxCell>
        <mxCell id="LN9f-XrlCzF4qDYMU047-9" value="repetitive node tasks" style="html=1;align=center;spacingLeft=4;verticalAlign=top;strokeColor=none;fillColor=none;whiteSpace=wrap;" vertex="1" parent="LN9f-XrlCzF4qDYMU047-5">
          <mxGeometry y="48" width="140" height="25" as="geometry" />
        </mxCell>
        <mxCell id="LN9f-XrlCzF4qDYMU047-11" value="" style="line;strokeWidth=1;fillColor=none;align=left;verticalAlign=middle;spacingTop=-1;spacingLeft=3;spacingRight=3;rotatable=0;labelPosition=right;points=[];portConstraint=eastwest;" vertex="1" parent="LN9f-XrlCzF4qDYMU047-5">
          <mxGeometry y="73" width="140" height="8" as="geometry" />
        </mxCell>
        <mxCell id="LN9f-XrlCzF4qDYMU047-12" value="monitoring" style="html=1;align=center;spacingLeft=4;verticalAlign=top;strokeColor=none;fillColor=none;whiteSpace=wrap;" vertex="1" parent="LN9f-XrlCzF4qDYMU047-5">
          <mxGeometry y="81" width="140" height="25" as="geometry" />
        </mxCell>
        <mxCell id="LN9f-XrlCzF4qDYMU047-26" value="" style="line;strokeWidth=1;fillColor=none;align=left;verticalAlign=middle;spacingTop=-1;spacingLeft=3;spacingRight=3;rotatable=0;labelPosition=right;points=[];portConstraint=eastwest;" vertex="1" parent="LN9f-XrlCzF4qDYMU047-5">
          <mxGeometry y="106" width="140" height="8" as="geometry" />
        </mxCell>
        <mxCell id="LN9f-XrlCzF4qDYMU047-25" value="access control" style="text;html=1;align=center;verticalAlign=middle;resizable=0;points=[];autosize=1;strokeColor=none;fillColor=none;" vertex="1" parent="LN9f-XrlCzF4qDYMU047-5">
          <mxGeometry y="114" width="140" height="30" as="geometry" />
        </mxCell>
        <mxCell id="LN9f-XrlCzF4qDYMU047-44" style="edgeStyle=orthogonalEdgeStyle;rounded=0;orthogonalLoop=1;jettySize=auto;html=1;entryX=0.5;entryY=0;entryDx=0;entryDy=0;" edge="1" parent="1c1d494c118603dd-3" source="LN9f-XrlCzF4qDYMU047-31" target="LN9f-XrlCzF4qDYMU047-43">
          <mxGeometry relative="1" as="geometry" />
        </mxCell>
        <mxCell id="LN9f-XrlCzF4qDYMU047-31" value="&amp;nbsp;Listing" style="swimlane;fontStyle=1;align=center;verticalAlign=middle;childLayout=stackLayout;horizontal=1;startSize=29;horizontalStack=0;resizeParent=1;resizeParentMax=0;resizeLast=0;collapsible=0;marginBottom=0;html=1;whiteSpace=wrap;" vertex="1" parent="1c1d494c118603dd-3">
          <mxGeometry x="55" y="270" width="140" height="94" as="geometry" />
        </mxCell>
        <mxCell id="LN9f-XrlCzF4qDYMU047-33" value="- Hardware data scraped by the script&lt;div&gt;-&amp;nbsp;Price setting&lt;/div&gt;&lt;div&gt;-&amp;nbsp;Mounting duration&lt;br&gt;&lt;div&gt;&lt;br&gt;&lt;/div&gt;&lt;/div&gt;" style="text;html=1;strokeColor=none;fillColor=none;align=left;verticalAlign=middle;spacingLeft=4;spacingRight=4;overflow=hidden;rotatable=0;points=[[0,0.5],[1,0.5]];portConstraint=eastwest;whiteSpace=wrap;" vertex="1" parent="LN9f-XrlCzF4qDYMU047-31">
          <mxGeometry y="29" width="140" height="65" as="geometry" />
        </mxCell>
        <mxCell id="LN9f-XrlCzF4qDYMU047-39" value="Set device rental&lt;br&gt;&amp;nbsp;parameters" style="text;html=1;align=center;verticalAlign=middle;resizable=0;points=[];autosize=1;strokeColor=#666666;fillColor=#f5f5f5;fontColor=#333333;" vertex="1" parent="1c1d494c118603dd-3">
          <mxGeometry x="-65" y="309" width="110" height="40" as="geometry" />
        </mxCell>
        <mxCell id="LN9f-XrlCzF4qDYMU047-121" style="edgeStyle=orthogonalEdgeStyle;rounded=0;orthogonalLoop=1;jettySize=auto;html=1;endArrow=none;endFill=0;" edge="1" parent="1c1d494c118603dd-3" source="LN9f-XrlCzF4qDYMU047-43" target="LN9f-XrlCzF4qDYMU047-105">
          <mxGeometry relative="1" as="geometry" />
        </mxCell>
        <mxCell id="LN9f-XrlCzF4qDYMU047-43" value="&amp;nbsp;Nodes&amp;nbsp;&lt;br&gt;Repository" style="shape=datastore;whiteSpace=wrap;html=1;" vertex="1" parent="1c1d494c118603dd-3">
          <mxGeometry x="82.5" y="410" width="85" height="60" as="geometry" />
        </mxCell>
        <mxCell id="LN9f-XrlCzF4qDYMU047-123" style="edgeStyle=orthogonalEdgeStyle;rounded=0;orthogonalLoop=1;jettySize=auto;html=1;entryX=0.5;entryY=0;entryDx=0;entryDy=0;" edge="1" parent="1c1d494c118603dd-3" source="LN9f-XrlCzF4qDYMU047-105" target="LN9f-XrlCzF4qDYMU047-122">
          <mxGeometry relative="1" as="geometry" />
        </mxCell>
        <mxCell id="LN9f-XrlCzF4qDYMU047-105" value="Funds Delivery Contract" style="html=1;align=center;verticalAlign=middle;dashed=0;whiteSpace=wrap;" vertex="1" parent="1c1d494c118603dd-3">
          <mxGeometry x="42.5" y="540" width="165" height="50" as="geometry" />
        </mxCell>
        <mxCell id="LN9f-XrlCzF4qDYMU047-122" value="Webshell" style="html=1;align=center;verticalAlign=middle;dashed=0;whiteSpace=wrap;" vertex="1" parent="1c1d494c118603dd-3">
          <mxGeometry x="42.5" y="635" width="165" height="50" as="geometry" />
        </mxCell>
        <mxCell id="LN9f-XrlCzF4qDYMU047-145" value="GPU pooling" style="ellipse;shape=cloud;whiteSpace=wrap;html=1;dashed=1;" vertex="1" parent="1c1d494c118603dd-3">
          <mxGeometry x="47.5" y="740" width="155" height="100" as="geometry" />
        </mxCell>
        <mxCell id="LN9f-XrlCzF4qDYMU047-27" style="edgeStyle=orthogonalEdgeStyle;rounded=0;orthogonalLoop=1;jettySize=auto;html=1;entryX=1;entryY=0.5;entryDx=0;entryDy=0;" edge="1" parent="1c1d494c118603dd-1" source="LN9f-XrlCzF4qDYMU047-5" target="LN9f-XrlCzF4qDYMU047-4">
          <mxGeometry relative="1" as="geometry" />
        </mxCell>
        <mxCell id="LN9f-XrlCzF4qDYMU047-38" style="edgeStyle=orthogonalEdgeStyle;rounded=0;orthogonalLoop=1;jettySize=auto;html=1;entryX=0;entryY=0.5;entryDx=0;entryDy=0;" edge="1" parent="1c1d494c118603dd-1" source="LN9f-XrlCzF4qDYMU047-28" target="LN9f-XrlCzF4qDYMU047-33">
          <mxGeometry relative="1" as="geometry" />
        </mxCell>
        <mxCell id="1c1d494c118603dd-4" value="&lt;div style=&quot;font-weight: normal; color: rgb(31, 35, 41);&quot;&gt;&lt;p style=&quot;&quot;&gt;&lt;span style=&quot;color: rgb(0, 0, 0); background-color: rgb(255, 255, 255);&quot;&gt;&lt;font style=&quot;font-size: 14px;&quot;&gt;Lessee&lt;/font&gt;&lt;/span&gt;&lt;/p&gt;&lt;/div&gt;&lt;span style=&quot;white-space:pre-wrap;&quot;&gt;&lt;/span&gt;" style="swimlane;html=1;startSize=20;" parent="1c1d494c118603dd-1" vertex="1">
          <mxGeometry x="550" y="20" width="260" height="890" as="geometry" />
        </mxCell>
        <mxCell id="LN9f-XrlCzF4qDYMU047-100" style="edgeStyle=orthogonalEdgeStyle;rounded=0;orthogonalLoop=1;jettySize=auto;html=1;entryX=0.5;entryY=0;entryDx=0;entryDy=0;" edge="1" parent="1c1d494c118603dd-4" source="LN9f-XrlCzF4qDYMU047-3" target="LN9f-XrlCzF4qDYMU047-85">
          <mxGeometry relative="1" as="geometry" />
        </mxCell>
        <mxCell id="LN9f-XrlCzF4qDYMU047-3" value="" style="ellipse;html=1;shape=endState;fillColor=strokeColor;" vertex="1" parent="1c1d494c118603dd-4">
          <mxGeometry x="100" y="40" width="40" height="40" as="geometry" />
        </mxCell>
        <mxCell id="LN9f-XrlCzF4qDYMU047-89" style="edgeStyle=orthogonalEdgeStyle;rounded=0;orthogonalLoop=1;jettySize=auto;html=1;entryX=0.5;entryY=0;entryDx=0;entryDy=0;" edge="1" parent="1c1d494c118603dd-4" source="LN9f-XrlCzF4qDYMU047-85" target="LN9f-XrlCzF4qDYMU047-87">
          <mxGeometry relative="1" as="geometry" />
        </mxCell>
        <mxCell id="LN9f-XrlCzF4qDYMU047-96" style="edgeStyle=orthogonalEdgeStyle;rounded=0;orthogonalLoop=1;jettySize=auto;html=1;entryX=0.5;entryY=0;entryDx=0;entryDy=0;" edge="1" parent="1c1d494c118603dd-4" source="LN9f-XrlCzF4qDYMU047-85" target="LN9f-XrlCzF4qDYMU047-90">
          <mxGeometry relative="1" as="geometry" />
        </mxCell>
        <mxCell id="LN9f-XrlCzF4qDYMU047-85" value="Purchase" style="html=1;align=center;verticalAlign=middle;rounded=1;absoluteArcSize=1;arcSize=10;dashed=0;whiteSpace=wrap;" vertex="1" parent="1c1d494c118603dd-4">
          <mxGeometry x="50" y="150" width="140" height="40" as="geometry" />
        </mxCell>
        <mxCell id="LN9f-XrlCzF4qDYMU047-87" value="&lt;span style=&quot;font-weight: normal;&quot;&gt;Quick purchase&lt;/span&gt;&lt;div&gt;&lt;span style=&quot;font-weight: normal;&quot;&gt;(&lt;/span&gt;&lt;span style=&quot;font-weight: 400; text-align: left; text-wrap-mode: nowrap; background-color: initial;&quot;&gt;Processor Type&lt;/span&gt;&lt;span style=&quot;font-weight: normal; background-color: initial;&quot;&gt;)&lt;/span&gt;&lt;/div&gt;" style="fontStyle=1;whiteSpace=wrap;html=1;" vertex="1" parent="1c1d494c118603dd-4">
          <mxGeometry x="140" y="260" width="90" height="40" as="geometry" />
        </mxCell>
        <mxCell id="LN9f-XrlCzF4qDYMU047-90" value="&lt;span style=&quot;font-weight: 400;&quot;&gt;Customized purchase&lt;/span&gt;" style="swimlane;fontStyle=1;align=center;verticalAlign=top;childLayout=stackLayout;horizontal=1;startSize=30;horizontalStack=0;resizeParent=1;resizeParentMax=0;resizeLast=0;collapsible=0;marginBottom=0;html=1;whiteSpace=wrap;" vertex="1" parent="1c1d494c118603dd-4">
          <mxGeometry x="5" y="260" width="120" height="100" as="geometry" />
        </mxCell>
        <mxCell id="LN9f-XrlCzF4qDYMU047-98" value="- Region&lt;br&gt;-&amp;nbsp;Processor Type&lt;br&gt;&lt;div&gt;- Specs&lt;br&gt;- Price&lt;/div&gt;" style="text;html=1;align=left;verticalAlign=middle;resizable=0;points=[];autosize=1;strokeColor=none;fillColor=none;" vertex="1" parent="LN9f-XrlCzF4qDYMU047-90">
          <mxGeometry y="30" width="120" height="70" as="geometry" />
        </mxCell>
        <mxCell id="LN9f-XrlCzF4qDYMU047-99" value="&lt;font&gt;One-Time Payment with USDT/JCT&lt;/font&gt;" style="html=1;align=center;verticalAlign=middle;rounded=1;absoluteArcSize=1;arcSize=10;dashed=0;whiteSpace=wrap;" vertex="1" parent="1c1d494c118603dd-4">
          <mxGeometry x="60" y="544" width="140" height="40" as="geometry" />
        </mxCell>
        <mxCell id="LN9f-XrlCzF4qDYMU047-103" style="edgeStyle=orthogonalEdgeStyle;rounded=0;orthogonalLoop=1;jettySize=auto;html=1;entryX=0.5;entryY=0;entryDx=0;entryDy=0;" edge="1" parent="1c1d494c118603dd-4" source="LN9f-XrlCzF4qDYMU047-101" target="LN9f-XrlCzF4qDYMU047-99">
          <mxGeometry relative="1" as="geometry" />
        </mxCell>
        <mxCell id="LN9f-XrlCzF4qDYMU047-101" value="Recommendation" style="html=1;align=center;verticalAlign=middle;rounded=1;absoluteArcSize=1;arcSize=10;dashed=0;whiteSpace=wrap;" vertex="1" parent="1c1d494c118603dd-4">
          <mxGeometry x="60" y="420" width="140" height="40" as="geometry" />
        </mxCell>
        <mxCell id="LN9f-XrlCzF4qDYMU047-146" style="edgeStyle=orthogonalEdgeStyle;rounded=0;orthogonalLoop=1;jettySize=auto;html=1;" edge="1" parent="1c1d494c118603dd-4" source="LN9f-XrlCzF4qDYMU047-141" target="LN9f-XrlCzF4qDYMU047-144">
          <mxGeometry relative="1" as="geometry" />
        </mxCell>
        <mxCell id="LN9f-XrlCzF4qDYMU047-141" value="&lt;font&gt;Task Deployment&lt;/font&gt;" style="html=1;align=center;verticalAlign=middle;rounded=1;absoluteArcSize=1;arcSize=10;dashed=0;whiteSpace=wrap;" vertex="1" parent="1c1d494c118603dd-4">
          <mxGeometry x="60" y="640" width="140" height="40" as="geometry" />
        </mxCell>
        <mxCell id="LN9f-XrlCzF4qDYMU047-144" value="&lt;font&gt;Cluster Tasks&lt;/font&gt;" style="html=1;align=center;verticalAlign=middle;rounded=1;absoluteArcSize=1;arcSize=10;dashed=1;whiteSpace=wrap;" vertex="1" parent="1c1d494c118603dd-4">
          <mxGeometry x="60" y="770" width="140" height="40" as="geometry" />
        </mxCell>
        <mxCell id="LN9f-XrlCzF4qDYMU047-102" style="edgeStyle=orthogonalEdgeStyle;rounded=0;orthogonalLoop=1;jettySize=auto;html=1;entryX=0;entryY=0.5;entryDx=0;entryDy=0;" edge="1" parent="1c1d494c118603dd-1" source="LN9f-XrlCzF4qDYMU047-43" target="LN9f-XrlCzF4qDYMU047-101">
          <mxGeometry relative="1" as="geometry" />
        </mxCell>
        <mxCell id="LN9f-XrlCzF4qDYMU047-108" style="edgeStyle=orthogonalEdgeStyle;rounded=0;orthogonalLoop=1;jettySize=auto;html=1;entryX=1;entryY=0.5;entryDx=0;entryDy=0;" edge="1" parent="1c1d494c118603dd-1" source="LN9f-XrlCzF4qDYMU047-99" target="LN9f-XrlCzF4qDYMU047-105">
          <mxGeometry relative="1" as="geometry" />
        </mxCell>
        <mxCell id="LN9f-XrlCzF4qDYMU047-110" style="edgeStyle=orthogonalEdgeStyle;rounded=0;orthogonalLoop=1;jettySize=auto;html=1;entryX=1;entryY=0.5;entryDx=0;entryDy=0;" edge="1" parent="1c1d494c118603dd-1" source="LN9f-XrlCzF4qDYMU047-105" target="LN9f-XrlCzF4qDYMU047-109">
          <mxGeometry relative="1" as="geometry" />
        </mxCell>
        <mxCell id="LN9f-XrlCzF4qDYMU047-128" style="edgeStyle=orthogonalEdgeStyle;rounded=0;orthogonalLoop=1;jettySize=auto;html=1;entryX=0;entryY=0.5;entryDx=0;entryDy=0;" edge="1" parent="1c1d494c118603dd-1" source="LN9f-XrlCzF4qDYMU047-126" target="LN9f-XrlCzF4qDYMU047-122">
          <mxGeometry relative="1" as="geometry" />
        </mxCell>
        <mxCell id="LN9f-XrlCzF4qDYMU047-143" style="edgeStyle=orthogonalEdgeStyle;rounded=0;orthogonalLoop=1;jettySize=auto;html=1;" edge="1" parent="1c1d494c118603dd-1" source="LN9f-XrlCzF4qDYMU047-122" target="LN9f-XrlCzF4qDYMU047-141">
          <mxGeometry relative="1" as="geometry" />
        </mxCell>
        <mxCell id="LN9f-XrlCzF4qDYMU047-147" style="edgeStyle=orthogonalEdgeStyle;rounded=0;orthogonalLoop=1;jettySize=auto;html=1;dashed=1;" edge="1" parent="1c1d494c118603dd-1" source="LN9f-XrlCzF4qDYMU047-144" target="LN9f-XrlCzF4qDYMU047-145">
          <mxGeometry relative="1" as="geometry" />
        </mxCell>
      </root>
    </mxGraphModel>
  </diagram>
</mxfile>
